{"title":"The.Hunger.Games.Mockingjay.Part.2.2015.WEBRip.480p-VYTO","uid":13810862,"size":534769060,"categoryP":"video","categoryS":"movies","magnet":"?xt=urn:btih:be50042b1b765c3774ea62bfabab7fc088f72626&amp;dn=The.Hunger.Games.Mockingjay.Part.2.2015.WEBRip.480p-VYTO&amp;tr=udp%3A%2F%2Ftracker.leechers-paradise.org%3A6969&amp;tr=udp%3A%2F%2Fzer0day.ch%3A1337&amp;tr=udp%3A%2F%2Fopen.demonii.com%3A1337&amp;tr=udp%3A%2F%2Ftracker.coppersurfer.tk%3A6969&amp;tr=udp%3A%2F%2Fexodus.desync.com%3A6969","seeders":4,"leechers":6,"uploader":"VYTOP2PDL","files":7,"time":1457501530,"description":"The.Hunger.Games.Mockingjay.Part.2.2015.WEBRip.480p.x264.AAC-VYTO\r\n\r\n\r\nGenre: Adventure, Sci-Fi  \nhttp://www.imdb.com/title/tt1951266/\r\n\r\n\r\nFormat                                   : MPEG-4\r\nFile size                                : 503 MiB\r\nDuration                                 : 2h 16mn\r\nOverall bit rate                         : 513 Kbps\r\n\r\nVideo\r\nFormat                                   : AVC\r\nBit rate                                 : 478 Kbps\r\nWidth                                    : 720 pixels\r\nHeight                                   : 296 pixels\r\nDisplay aspect ratio                     : 2.40:1\r\nFrame rate mode                          : Constant\r\nFrame rate                               : 23.976 fps\r\nBit depth                                : 8 bits\r\nStream size                              : 468 MiB (93%)\r\nWriting library                          : x264 \r\n\r\nAudio\r\nFormat                                   : AAC\r\nBit rate mode                            : Variable\r\nBit rate                                 : 32.0 Kbps\r\nChannel(s)                               : 2 channels\r\nChannel positions                        : Front: L R\r\nSampling rate                            : 48.0 KHz \r\nStream size                              : 31.3 MiB (6%)\r\nLanguage                                 : English\r\n\r\nSubtitle                                 : Yes (English)\r\n\r\nScreen Shot: (Click to view)\r\n \nhttp://ititli.com/X8A \nhttp://ititli.com/X8l \nhttp://ititli.com/X8m \nhttp://ititli.com/X8x \nhttp://ititli.com/X87 \nhttp://ititli.com/X8C \nhttp://ititli.com/X8F \nhttp://ititli.com/X8J \nhttp://ititli.com/X85 \nhttp://ititli.com/X8B \nhttp://ititli.com/X8N \nhttp://ititli.com/X8P \nhttp://ititli.com/X8f \nhttp://ititli.com/X8u \nhttp://ititli.com/X8v\r\n\r\n----------------------------------------------------------------------------------------------------\r\n\r\n\r\nEncoder Notes: Looking For Early Access To Anything You Can Provide WEBDL, DVDScr, DVDR, BluRay,\r\nDirect Audio, Music Releases and Seedboxes. If You Got anything to offer please contact us.\r\n\r\nSupport us by donating BC - 1FgwdzPsd1y25Gea8wP1qni35uGCtmkRCD\r\n\r\nSend some love!\r\nFind us and join us!","torrent":{"xt":"urn:btih:be50042b1b765c3774ea62bfabab7fc088f72626","amp;dn":"The.Hunger.Games.Mockingjay.Part.2.2015.WEBRip.480p-VYTO","amp;tr":["udp%3A%2F%2Ftracker.leechers-paradise.org%3A6969","udp%3A%2F%2Fzer0day.ch%3A1337","udp%3A%2F%2Fopen.demonii.com%3A1337","udp%3A%2F%2Ftracker.coppersurfer.tk%3A6969","udp%3A%2F%2Fexodus.desync.com%3A6969"],"infoHash":"be50042b1b765c3774ea62bfabab7fc088f72626","infoHashBuffer":{"type":"Buffer","data":[190,80,4,43,27,118,92,55,116,234,98,191,171,171,127,192,136,247,38,38]},"announce":[],"urlList":[]}}